<svg width="128" height="34" viewBox="0 0 128 34" fill="none" xmlns="http://www.w3.org/2000/svg">
<path d="M20.3687 16.6201C20.393 14.181 21.5852 11.9375 23.5194 10.6593C22.9134 9.7326 22.1139 8.97054 21.1846 8.43383C20.2553 7.89713 19.2219 7.60064 18.1668 7.56799C15.9284 7.30712 13.7508 9.00277 12.6073 9.00277C11.4394 9.00277 9.67549 7.59408 7.77773 7.63321C6.54993 7.67611 5.35341 8.05904 4.30457 8.74475C3.25573 9.43046 2.39029 10.3956 1.79247 11.5462C-0.798705 16.3593 1.13555 23.4157 3.61724 27.3027C4.85809 29.194 6.29358 31.3201 8.20351 31.2418C10.0526 31.1635 10.7582 29.9766 12.9844 29.9766C15.2106 29.9766 15.8554 31.2418 17.7896 31.2027C19.7847 31.1635 21.0377 29.2853 22.2421 27.3679C23.1301 26.0114 23.8236 24.5114 24.2737 22.9331C23.1166 22.4081 22.1293 21.5295 21.4349 20.4069C20.7405 19.2842 20.3696 17.9672 20.3687 16.6201ZM16.7069 5.01148C17.7947 3.61438 18.3315 1.81754 18.2033 0.00280762C16.5366 0.198459 15.0038 1.04628 13.909 2.38975C13.37 3.0466 12.9573 3.81097 12.6942 4.63909C12.4312 5.46722 12.3231 6.34284 12.3762 7.21582C13.2067 7.22472 14.0282 7.03088 14.7786 6.64897C15.5289 6.26706 16.1883 5.70709 16.7069 5.01148Z" fill="white"/>
<path d="M45.8548 25.2419H40.1007L38.7139 29.6245H36.2809L41.7309 13.4246H44.2734L49.7234 29.6245H47.2417L45.8548 25.2419ZM40.6968 23.2202H45.2588L43.0082 16.1115H42.9474L40.6968 23.2202ZM61.4992 23.7158C61.4992 27.381 59.6745 29.7419 56.9008 29.7419C56.2008 29.7819 55.5043 29.6098 54.8912 29.2454C54.2781 28.8809 53.773 28.3388 53.4337 27.681H53.3851V33.5245H51.1224V17.8072H53.3121V19.7637H53.3486C53.7032 19.1069 54.2176 18.5657 54.8369 18.1981C55.4561 17.8305 56.1569 17.6503 56.8643 17.6767C59.6623 17.6767 61.4992 20.0506 61.4992 23.7158ZM59.1757 23.7158C59.1757 21.3289 58.02 19.7506 56.256 19.7506C54.5408 19.7506 53.3729 21.355 53.3729 23.7158C53.3729 26.0897 54.5408 27.6941 56.2682 27.6941C58.02 27.6941 59.1757 26.1289 59.1757 23.7158ZM73.6157 23.7158C73.6157 27.381 71.7909 29.7419 69.0294 29.7419C68.3294 29.7819 67.633 29.6098 67.0199 29.2454C66.4067 28.8809 65.9016 28.3388 65.5624 27.681H65.5016V33.5245H63.251V17.8072H65.4407V19.7637H65.4772C65.8308 19.1088 66.3433 18.569 66.9603 18.2015C67.5772 17.834 68.2754 17.6527 68.9808 17.6767C71.7788 17.6767 73.6157 20.0506 73.6157 23.7158ZM71.3043 23.7158C71.3043 21.3289 70.1486 19.7506 68.3847 19.7506C66.6572 19.7506 65.5016 21.355 65.5016 23.7158C65.5016 26.0897 66.6572 27.6941 68.3847 27.6941C70.1486 27.6941 71.3043 26.1289 71.3043 23.7158ZM81.6325 25.1115C81.8029 26.7158 83.2505 27.7723 85.2456 27.7723C87.1555 27.7723 88.5302 26.7158 88.5302 25.268C88.5302 24.0028 87.6908 23.2593 85.7322 22.7376L83.7858 22.2289C81 21.5115 79.7226 20.1289 79.7226 17.8724C79.7226 15.0681 81.9853 13.1507 85.2091 13.1507C88.4085 13.1507 90.5983 15.0681 90.6712 17.8724H88.3842C88.2504 16.255 86.9974 15.2637 85.1848 15.2637C83.36 15.2637 82.1192 16.255 82.1192 17.7028C82.1192 18.8376 82.9099 19.5289 84.8563 20.0376L86.5229 20.468C89.6251 21.2506 90.9024 22.5941 90.9024 24.955C90.9024 27.9941 88.6518 29.8854 85.0753 29.8854C81.7299 29.8854 79.4671 28.0332 79.3212 25.1115H81.6325ZM95.7928 15.0159V17.8072H97.8852V19.7246H95.7928V26.2463C95.7928 27.2506 96.2064 27.7202 97.1309 27.7202C97.3742 27.7202 97.6176 27.6941 97.8609 27.668V29.5723C97.4594 29.6636 97.0336 29.7028 96.62 29.6897C94.3816 29.6897 93.5179 28.7767 93.5179 26.4941V19.7246H91.9121V17.8072H93.5179V15.0159H95.7928ZM99.0895 23.7158C99.0895 19.9985 101.133 17.6637 104.321 17.6637C107.508 17.6637 109.552 20.0115 109.552 23.7158C109.552 27.4463 107.52 29.768 104.321 29.768C101.121 29.768 99.0895 27.4463 99.0895 23.7158ZM107.24 23.7158C107.24 21.1724 106.145 19.6724 104.321 19.6724C102.496 19.6724 101.401 21.1724 101.401 23.7158C101.401 26.2724 102.496 27.7593 104.321 27.7593C106.145 27.7593 107.24 26.2724 107.24 23.7158ZM111.413 17.8072H113.566V19.8159H113.615C113.919 18.5246 115.026 17.6376 116.267 17.6898C116.522 17.6898 116.79 17.7159 117.045 17.7811V20.0506C116.715 19.9388 116.37 19.8859 116.023 19.8941C115.694 19.8784 115.365 19.9397 115.059 20.074C114.754 20.2082 114.479 20.4121 114.255 20.6715C114.03 20.9308 113.861 21.2395 113.759 21.576C113.657 21.9125 113.624 22.2688 113.663 22.6202V29.6245H111.413V17.8072ZM127.459 26.155C127.155 28.2941 125.208 29.768 122.714 29.768C119.515 29.768 117.532 27.4593 117.532 23.768C117.532 20.0637 119.527 17.6637 122.629 17.6637C125.67 17.6637 127.592 19.9072 127.592 23.4941V24.3158H119.807V24.4724C119.772 24.9069 119.824 25.3444 119.959 25.7559C120.094 26.1674 120.308 26.5435 120.589 26.8592C120.87 27.1749 121.21 27.4231 121.587 27.5873C121.963 27.7514 122.369 27.8279 122.775 27.8115C123.87 27.9158 124.904 27.2506 125.318 26.155H127.459ZM119.819 22.6332H125.33C125.35 22.2424 125.295 21.8514 125.167 21.4846C125.04 21.1177 124.843 20.783 124.59 20.5014C124.336 20.2198 124.031 19.9973 123.694 19.848C123.357 19.6986 122.994 19.6255 122.629 19.6333C121.887 19.6333 121.175 19.9493 120.651 20.5119C120.126 21.0745 119.831 21.8376 119.831 22.6332H119.819Z" fill="white"/>
<path d="M40.4167 1.22876C40.8905 1.19375 41.3657 1.27185 41.8079 1.45742C42.2502 1.643 42.6486 1.93143 42.9743 2.30194C43.3001 2.67246 43.5452 3.11583 43.692 3.60013C43.8387 4.08443 43.8834 4.59759 43.823 5.10266C43.823 7.58091 42.5699 9.01568 40.4167 9.01568H37.789V1.22876H40.4167ZM38.9204 7.90699H40.2829C40.6209 7.92794 40.9589 7.86819 41.2727 7.73204C41.5866 7.5959 41.8683 7.38676 42.0975 7.11972C42.3268 6.85267 42.4979 6.53439 42.5986 6.18783C42.6992 5.84128 42.7268 5.47509 42.6794 5.1157C42.7268 4.75631 42.6992 4.39012 42.5986 4.04356C42.4979 3.69701 42.3268 3.37872 42.0975 3.11168C41.8683 2.84464 41.5866 2.6355 41.2727 2.49936C40.9589 2.36321 40.6209 2.30346 40.2829 2.32441H38.9204V7.90699ZM45.1003 6.06787C45.076 5.68789 45.1248 5.30661 45.2437 4.9477C45.3626 4.5888 45.549 4.25994 45.7915 3.98156C46.0339 3.70317 46.3271 3.4812 46.6529 3.32944C46.9787 3.17768 47.3302 3.09937 47.6854 3.09937C48.0406 3.09937 48.392 3.17768 48.7179 3.32944C49.0437 3.4812 49.3369 3.70317 49.5793 3.98156C49.8218 4.25994 50.0082 4.5888 50.1271 4.9477C50.246 5.30661 50.2948 5.68789 50.2705 6.06787C50.2948 6.44785 50.246 6.82913 50.1271 7.18803C50.0082 7.54694 49.8218 7.87579 49.5793 8.15418C49.3369 8.43257 49.0437 8.65453 48.7179 8.80629C48.392 8.95805 48.0406 9.03637 47.6854 9.03637C47.3302 9.03637 46.9787 8.95805 46.6529 8.80629C46.3271 8.65453 46.0339 8.43257 45.7915 8.15418C45.549 7.87579 45.3626 7.54694 45.2437 7.18803C45.1248 6.82913 45.076 6.44785 45.1003 6.06787ZM49.1513 6.06787C49.1513 4.80266 48.6282 4.05918 47.6915 4.05918C46.7426 4.05918 46.2195 4.80266 46.2195 6.06787C46.2195 7.35917 46.7426 8.0896 47.6793 8.0896C48.6282 8.0896 49.1513 7.34612 49.1513 6.06787ZM57.1316 9.01568H56.0124L54.8811 4.68527H54.7959L53.6646 9.01568H52.5697L51.049 3.14614H52.1439L53.1171 7.62004H53.2023L54.3336 3.1331H55.3677L56.499 7.62004H56.5842L57.5574 3.1331H58.6401L57.1316 9.01568ZM59.9053 3.14614H60.9515V4.07223H61.0366C61.3164 3.38092 61.9734 2.96354 62.6668 3.02875C62.9331 3.00602 63.2008 3.04802 63.45 3.15162C63.6991 3.25522 63.9232 3.41776 64.1056 3.62713C64.288 3.83649 64.424 4.08729 64.5035 4.36083C64.5829 4.63437 64.6038 4.92361 64.5645 5.207V9.01568H63.4697V5.49396C63.4697 4.55483 63.1047 4.08527 62.3018 4.08527C62.1203 4.07466 61.9389 4.10651 61.77 4.17861C61.6012 4.25071 61.449 4.36132 61.324 4.50278C61.199 4.64425 61.1042 4.81317 61.0462 4.99784C60.9881 5.18251 60.9683 5.3785 60.988 5.57222V9.01568H59.9053V3.14614ZM66.292 0.850501H67.3625V9.01568H66.2798L66.292 0.850501ZM68.871 6.06787C68.8467 5.68789 68.8955 5.30661 69.0144 4.9477C69.1333 4.5888 69.3197 4.25994 69.5621 3.98156C69.8046 3.70317 70.0978 3.4812 70.4236 3.32944C70.7494 3.17768 71.1009 3.09937 71.4561 3.09937C71.8113 3.09937 72.1627 3.17768 72.4885 3.32944C72.8144 3.4812 73.1076 3.70317 73.35 3.98156C73.5924 4.25994 73.7789 4.5888 73.8978 4.9477C74.0167 5.30661 74.0655 5.68789 74.0412 6.06787C74.0655 6.44785 74.0167 6.82913 73.8978 7.18803C73.7789 7.54694 73.5924 7.87579 73.35 8.15418C73.1076 8.43257 72.8144 8.65453 72.4885 8.80629C72.1627 8.95805 71.8113 9.03637 71.4561 9.03637C71.1009 9.03637 70.7494 8.95805 70.4236 8.80629C70.0978 8.65453 69.8046 8.43257 69.5621 8.15418C69.3197 7.87579 69.1333 7.54694 69.0144 7.18803C68.8955 6.82913 68.8467 6.44785 68.871 6.06787ZM72.922 6.06787C72.922 4.80266 72.3867 4.05918 71.4622 4.05918C70.5133 4.05918 69.9902 4.80266 69.9902 6.06787C69.9902 7.35917 70.5133 8.0896 71.45 8.0896C72.3867 8.0896 72.922 7.34612 72.922 6.06787ZM75.1725 7.34612C75.1725 6.30265 75.9024 5.68961 77.2163 5.59831L78.7004 5.507V4.99831C78.7004 4.38527 78.3111 4.0331 77.5691 4.0331C76.9608 4.0331 76.5472 4.26788 76.4377 4.68527H75.3793C75.501 3.66788 76.3769 3.02875 77.6177 3.02875C78.9924 3.02875 79.771 3.75918 79.771 4.99831V9.01568H78.7248V8.1809H78.6396C78.2868 8.79394 77.6664 9.14612 76.9973 9.10699C76.7672 9.13252 76.5346 9.10603 76.3147 9.02921C76.0947 8.9524 75.8922 8.82698 75.7202 8.66104C75.5483 8.4951 75.4107 8.29234 75.3163 8.06585C75.222 7.83936 75.173 7.59417 75.1725 7.34612ZM78.7004 6.85047V6.35482L77.3623 6.44613C76.608 6.4983 76.2674 6.78526 76.2674 7.29395C76.2674 7.81569 76.6932 8.12873 77.2771 8.12873C77.4494 8.14847 77.6237 8.13075 77.7895 8.07665C77.9553 8.02255 78.1092 7.93318 78.2421 7.81386C78.3749 7.69455 78.484 7.54774 78.5628 7.38221C78.6415 7.21669 78.6883 7.03584 78.7004 6.85047ZM81.1943 6.06787C81.1943 4.2157 82.0823 3.0418 83.4692 3.0418C84.1626 3.00267 84.8195 3.40701 85.1479 4.07223H85.2209V0.850501H86.3158V9.01568H85.2696V8.0896H85.1844C84.8317 8.74177 84.1747 9.13307 83.4692 9.10699C82.0702 9.10699 81.1943 7.93308 81.1943 6.06787ZM82.3135 6.06787C82.3135 7.32004 82.8609 8.06351 83.7733 8.06351C84.6857 8.06351 85.2453 7.30699 85.2453 6.08091C85.2453 4.85483 84.6735 4.08527 83.7733 4.08527C82.8609 4.08527 82.3135 4.84179 82.3135 6.06787ZM90.7804 6.06787C90.7561 5.68789 90.8049 5.30661 90.9238 4.9477C91.0427 4.5888 91.2291 4.25994 91.4716 3.98156C91.714 3.70317 92.0072 3.4812 92.333 3.32944C92.6588 3.17768 93.0103 3.09937 93.3655 3.09937C93.7207 3.09937 94.0722 3.17768 94.398 3.32944C94.7238 3.4812 95.017 3.70317 95.2594 3.98156C95.5019 4.25994 95.6883 4.5888 95.8072 4.9477C95.9261 5.30661 95.9749 5.68789 95.9506 6.06787C95.9749 6.44785 95.9261 6.82913 95.8072 7.18803C95.6883 7.54694 95.5019 7.87579 95.2594 8.15418C95.017 8.43257 94.7238 8.65453 94.398 8.80629C94.0722 8.95805 93.7207 9.03637 93.3655 9.03637C93.0103 9.03637 92.6588 8.95805 92.333 8.80629C92.0072 8.65453 91.714 8.43257 91.4716 8.15418C91.2291 7.87579 91.0427 7.54694 90.9238 7.18803C90.8049 6.82913 90.7561 6.44785 90.7804 6.06787ZM94.8314 6.06787C94.8314 4.80266 94.2961 4.05918 93.3716 4.05918C92.4227 4.05918 91.8996 4.80266 91.8996 6.06787C91.8996 7.35917 92.4227 8.0896 93.3594 8.0896C94.2961 8.0896 94.8314 7.34612 94.8314 6.06787ZM98.4323 3.14614V4.07223H98.5174C98.7972 3.38092 99.4542 2.96354 100.16 3.02875C100.425 3.00809 100.691 3.05162 100.939 3.15614C101.187 3.26066 101.409 3.42349 101.59 3.6326C101.771 3.84171 101.906 4.09176 101.985 4.36427C102.064 4.63677 102.084 4.92478 102.045 5.207V9.01568H100.975V5.49396C100.975 4.55483 100.586 4.08527 99.7826 4.08527C99.6021 4.07662 99.4221 4.10992 99.2547 4.18288C99.0873 4.25584 98.9367 4.36674 98.813 4.50797C98.6894 4.64921 98.5957 4.81744 98.5384 5.00114C98.4811 5.18483 98.4615 5.37965 98.4809 5.57222V9.01568H97.3861V3.14614H98.4323ZM108.164 1.67224V3.17223H109.344V4.13744H108.164V7.16352C108.164 7.77656 108.396 8.05047 108.931 8.05047L109.344 8.02438V8.9896C109.15 9.02873 108.955 9.04177 108.761 9.04177C107.544 9.04177 107.082 8.58525 107.082 7.46352V4.13744H106.206V3.17223H107.082V1.67224H108.164ZM110.816 0.850501H111.899V4.08527H111.984C112.276 3.39397 112.945 2.96354 113.651 3.0418C113.915 3.02597 114.179 3.0728 114.425 3.17896C114.67 3.28512 114.891 3.44799 115.071 3.65598C115.251 3.86397 115.386 4.11197 115.467 4.3823C115.547 4.65264 115.571 4.93868 115.536 5.22005V9.00264H114.454V5.507C114.454 4.56788 114.04 4.09831 113.286 4.09831C113.1 4.08031 112.912 4.10641 112.736 4.17477C112.56 4.24313 112.4 4.35208 112.268 4.49392C112.136 4.63576 112.034 4.80702 111.97 4.9956C111.907 5.18419 111.882 5.38548 111.899 5.58526V9.01568H110.816V0.850501ZM121.838 7.42438C121.69 7.95995 121.372 8.42295 120.938 8.73277C120.505 9.0426 119.984 9.17964 119.466 9.12003C119.106 9.12906 118.748 9.05434 118.417 8.90101C118.087 8.74768 117.791 8.51937 117.551 8.23181C117.31 7.94424 117.131 7.60424 117.025 7.23519C116.918 6.86613 116.888 6.4768 116.935 6.09396C116.889 5.70928 116.919 5.31826 117.025 4.9473C117.131 4.57634 117.31 4.23406 117.55 3.94354C117.789 3.65303 118.085 3.42104 118.415 3.26324C118.746 3.10543 119.104 3.02547 119.466 3.02875C120.986 3.02875 121.899 4.13744 121.899 5.98961V6.38091H118.043V6.45917C118.026 6.6748 118.051 6.89186 118.117 7.0964C118.183 7.30095 118.288 7.48846 118.425 7.6469C118.563 7.80535 118.729 7.93122 118.915 8.01645C119.1 8.10167 119.301 8.14436 119.502 8.14177C120.025 8.20699 120.536 7.92003 120.804 7.42438H121.838ZM118.043 5.53309H120.804C120.817 5.33669 120.793 5.13943 120.731 4.95381C120.67 4.7682 120.573 4.59826 120.448 4.45479C120.322 4.31131 120.17 4.19743 120.001 4.12035C119.832 4.04326 119.649 4.00467 119.466 4.00701C119.278 4.00347 119.091 4.04053 118.917 4.11598C118.743 4.19142 118.585 4.3037 118.452 4.44612C118.319 4.58854 118.215 4.75818 118.144 4.94493C118.074 5.13168 118.039 5.33171 118.043 5.53309Z" fill="white"/>
</svg>
