<svg width="137" height="36" viewBox="0 0 137 36" fill="none" xmlns="http://www.w3.org/2000/svg">
<path fill-rule="evenodd" clip-rule="evenodd" d="M1.82152 30.3243L1.9675 30.3634C1.91812 30.3536 1.86937 30.3406 1.82152 30.3243ZM22.6239 15.4548C23.1713 15.7809 23.512 16.2113 23.6215 16.6548L23.6458 16.8243C23.5971 17.32 23.2443 17.8156 22.6117 18.1939L3.39082 29.8939C3.00153 30.1417 2.62441 30.246 2.29596 30.246C1.95533 30.246 1.66337 30.1286 1.42007 29.9069L1.34708 29.8286C1.02822 29.4163 0.867339 28.8894 0.896964 28.3547V5.29396C0.896964 4.58962 1.09161 4.05484 1.42007 3.72875C1.66337 3.50701 1.95533 3.38962 2.29596 3.38962C2.62441 3.38962 3.00153 3.50701 3.39082 3.7418L22.6117 15.4548H22.6239ZM113.96 29.7895H116.223V13.4852H113.96V29.7895ZM134.397 19.3548L131.794 26.4243H131.721L129.02 19.3548H126.575L130.626 29.2417L128.315 34.733H130.687L136.928 19.3548H134.397ZM121.527 27.9373C120.784 27.9373 119.75 27.546 119.75 26.5547C119.75 25.2895 121.04 24.8069 122.147 24.8069C123.157 24.8069 123.619 25.0417 124.227 25.3547C124.145 26.0628 123.826 26.7147 123.329 27.1896C122.832 27.6645 122.192 27.9302 121.527 27.9373ZM121.806 19.0026C120.152 19.0026 118.461 19.7852 117.755 21.4939L119.763 22.4069C120.201 21.4939 121.003 21.2069 121.831 21.2069C123.011 21.2069 124.203 21.9504 124.227 23.2939V23.4634C123.497 23.0487 122.682 22.8336 121.855 22.8374C119.69 22.8374 117.476 24.1156 117.476 26.5026C117.476 28.6939 119.264 30.1025 121.247 30.1025C122.78 30.1025 123.619 29.3591 124.154 28.4982H124.227V29.7634H126.417V23.5026C126.417 20.62 124.398 19.0026 121.794 19.0026H121.806ZM107.768 21.3504H104.544V15.7417H107.768C109.471 15.7417 110.444 17.2548 110.444 18.5461C110.444 19.8113 109.471 21.3374 107.768 21.3374V21.3504ZM107.719 13.4852H102.269V29.7895H104.544V23.6069H107.707C110.225 23.6069 112.695 21.6504 112.695 18.5461C112.695 15.4417 110.225 13.4852 107.707 13.4852H107.719ZM78.0483 27.9373C76.4912 27.9373 75.1773 26.5286 75.1773 24.5982C75.1773 22.6417 76.4912 21.2069 78.0483 21.2069C79.6054 21.2069 80.822 22.6417 80.822 24.5982C80.822 26.5286 79.6054 27.9373 78.0483 27.9373ZM80.6638 20.2678H80.5787C80.2328 19.8654 79.8108 19.5467 79.3409 19.333C78.871 19.1193 78.364 19.0156 77.8537 19.0287C76.5145 19.083 75.2478 19.6953 74.3232 20.7354C73.3985 21.7755 72.8888 23.1614 72.9025 24.5982C72.8922 26.0303 73.4041 27.4099 74.3291 28.4431C75.254 29.4762 76.5188 30.0811 77.8537 30.1286C78.3664 30.1428 78.8757 30.0369 79.3464 29.8184C79.817 29.5999 80.2375 29.274 80.5787 28.8634H80.6638V29.6591C80.6638 31.7851 79.6055 32.9199 77.9023 32.9199C77.333 32.9083 76.7799 32.7146 76.3139 32.3636C75.8479 32.0127 75.4903 31.5206 75.2868 30.9504L73.3161 31.8243C73.6874 32.8002 74.3226 33.6347 75.1399 34.2205C75.9572 34.8062 76.9193 35.1164 77.9023 35.1112C80.5665 35.1112 82.817 33.4156 82.817 29.333V19.3678H80.6638V20.2809V20.2678ZM84.3864 29.7895H86.6612V13.4852H84.3864V29.7895ZM90.0067 24.4026C89.982 23.9991 90.0327 23.5945 90.1557 23.2123C90.2787 22.8301 90.4716 22.4781 90.7231 22.1768C90.9746 21.8756 91.2797 21.6312 91.6204 21.4579C91.9611 21.2847 92.3306 21.186 92.7073 21.1678C93.6197 21.1678 94.3861 21.6504 94.6294 22.3417L90.0067 24.4156V24.4026ZM97.0624 22.5634C96.6367 21.3243 95.3228 19.0417 92.6343 19.0417C89.9702 19.0417 87.7561 21.2722 87.7561 24.5721C87.7561 27.6895 89.9458 30.1286 92.8898 30.1286C95.262 30.1286 96.6367 28.5634 97.2084 27.6634L95.4445 26.4113C95.1786 26.8813 94.8034 27.2692 94.3555 27.5367C93.9076 27.8043 93.4025 27.9423 92.8898 27.9373C91.7341 27.9373 90.9069 27.3765 90.3838 26.2547L97.3057 23.1895L97.0624 22.5634ZM41.9543 20.7374V23.0852H47.1975C47.1218 24.1878 46.7019 25.2308 46.0053 26.046C45.4782 26.6219 44.8441 27.0727 44.1442 27.3693C43.4443 27.6659 42.6941 27.8016 41.9422 27.7678C41.1798 27.7661 40.4253 27.6024 39.7223 27.286C39.0193 26.9697 38.3818 26.507 37.8467 25.9247C37.3115 25.3425 36.8894 24.6522 36.6047 23.8939C36.32 23.1356 36.1784 22.3243 36.188 21.5069C36.1737 20.2933 36.4929 19.1019 37.1058 18.0814C37.7187 17.0609 38.5982 16.2564 39.6347 15.7682C40.6711 15.28 41.8187 15.1298 42.9342 15.3361C44.0498 15.5425 45.084 16.0964 45.908 16.9287L47.453 15.2722C46.7279 14.5033 45.867 13.8973 44.9207 13.4896C43.9745 13.082 42.9618 12.881 41.9422 12.8983C39.8014 12.898 37.7465 13.8008 36.2214 15.4116C34.6963 17.0224 33.8235 19.2119 33.7915 21.5069C33.8235 23.802 34.6963 25.9915 36.2214 27.6023C37.7465 29.213 39.8014 30.1158 41.9422 30.1156C44.3387 30.1156 46.1391 29.2808 47.5503 27.7026C48.8293 26.2041 49.5105 24.2284 49.4481 22.1982C49.4481 21.6504 49.4116 21.1548 49.3264 20.7374H41.9422H41.9543ZM55.4211 27.9373C53.8518 27.9373 52.5015 26.5547 52.5015 24.5721C52.5015 22.5765 53.8518 21.22 55.4211 21.22C57.0026 21.22 58.3408 22.5765 58.3408 24.5721C58.3408 26.5547 57.0026 27.9373 55.4211 27.9373ZM55.4211 19.0287C54.7379 19.0164 54.0593 19.1512 53.4255 19.4251C52.7917 19.6991 52.2156 20.1065 51.7312 20.6234C51.2469 21.1402 50.8642 21.756 50.6058 22.4343C50.3473 23.1126 50.2184 23.8395 50.2266 24.5721C50.2168 25.3059 50.3445 26.0342 50.6022 26.714C50.8599 27.3938 51.2423 28.0111 51.7268 28.5294C52.2113 29.0477 52.788 29.4563 53.4226 29.731C54.0572 30.0057 54.7369 30.1409 55.4211 30.1286C56.1054 30.1409 56.7851 30.0057 57.4197 29.731C58.0543 29.4563 58.631 29.0477 59.1155 28.5294C59.6 28.0111 59.9824 27.3938 60.2401 26.714C60.4978 26.0342 60.6255 25.3059 60.6157 24.5721C60.6239 23.8395 60.495 23.1126 60.2365 22.4343C59.9781 21.756 59.5954 21.1402 59.111 20.6234C58.6267 20.1065 58.0506 19.6991 57.4168 19.4251C56.783 19.1512 56.1044 19.0164 55.4211 19.0287ZM66.7591 27.9373C65.1776 27.9373 63.8394 26.5547 63.8394 24.5721C63.8394 22.5765 65.1776 21.22 66.7591 21.22C68.3162 21.22 69.6787 22.5765 69.6787 24.5721C69.6787 26.5547 68.3162 27.9373 66.7591 27.9373ZM66.7591 19.0287C66.0758 19.0164 65.3972 19.1512 64.7634 19.4251C64.1296 19.6991 63.5535 20.1065 63.0692 20.6234C62.5848 21.1402 62.2021 21.756 61.9437 22.4343C61.6852 23.1126 61.5563 23.8395 61.5645 24.5721C61.5547 25.3059 61.6824 26.0342 61.9401 26.714C62.1978 27.3938 62.5802 28.0111 63.0647 28.5294C63.5492 29.0477 64.1259 29.4563 64.7605 29.731C65.3951 30.0057 66.0748 30.1409 66.7591 30.1286C67.4433 30.1409 68.123 30.0057 68.7576 29.731C69.3922 29.4563 69.9689 29.0477 70.4534 28.5294C70.9379 28.0111 71.3203 27.3938 71.578 26.714C71.8357 26.0342 71.9635 25.3059 71.9536 24.5721C71.9618 23.8395 71.8329 23.1126 71.5744 22.4343C71.316 21.756 70.9333 21.1402 70.449 20.6234C69.9646 20.1065 69.3885 19.6991 68.7547 19.4251C68.1209 19.1512 67.4423 19.0164 66.7591 19.0287Z" fill="white"/>
<path fill-rule="evenodd" clip-rule="evenodd" d="M40.4948 4.70709C40.4948 5.68535 40.2271 6.46796 39.6797 7.05491C39.0715 7.74621 38.2564 8.09838 37.271 8.09838C36.3221 8.09838 35.5071 7.74621 34.838 7.04187C34.5165 6.70211 34.2632 6.2954 34.0937 5.84677C33.9242 5.39814 33.8422 4.91708 33.8526 4.43318C33.8526 3.38971 34.1811 2.50276 34.8502 1.79841C35.5071 1.09407 36.31 0.741894 37.271 0.741894C37.7333 0.741894 38.1834 0.846241 38.6092 1.04189C39.0471 1.23754 39.3878 1.49841 39.6432 1.8245L39.0593 2.43754C38.8399 2.162 38.5648 1.94363 38.255 1.799C37.9451 1.65436 37.6086 1.58725 37.271 1.60276C36.5776 1.60276 35.9815 1.86363 35.4706 2.38537C34.9718 2.9071 34.7163 3.58536 34.7163 4.42014C34.7163 5.25492 34.9596 5.93318 35.4706 6.45491C35.9815 6.97665 36.5654 7.23752 37.271 7.23752C38.0009 7.23752 38.6092 6.97665 39.0958 6.45491C39.4121 6.10274 39.6067 5.63318 39.6554 5.02014H37.271V4.17231H40.4461C40.4826 4.35492 40.4948 4.53753 40.4948 4.69405" fill="white"/>
<path fill-rule="evenodd" clip-rule="evenodd" d="M40.4948 4.70709L40.3851 4.70708C40.3851 5.6723 40.1175 6.40273 39.6065 6.97664C38.9983 7.64185 38.2319 7.98098 37.2708 7.98098C36.3463 7.98098 35.5677 7.64185 34.9229 6.96359C34.6075 6.63387 34.3592 6.23761 34.1938 5.79984C34.0284 5.36206 33.9494 4.89228 33.9619 4.42013C33.9619 3.40274 34.2782 2.56796 34.9351 1.87666C35.2394 1.54569 35.6035 1.28476 36.0051 1.10983C36.4067 0.9349 36.8374 0.849644 37.2708 0.859275C37.7209 0.859275 38.1589 0.950578 38.5725 1.14623C38.9861 1.34188 39.3024 1.58971 39.5579 1.90275L39.6432 1.8245L39.5579 1.74623L38.9861 2.35927L39.0593 2.43754L39.1442 2.37231C38.6941 1.78536 38.0494 1.48536 37.2708 1.48536C36.5409 1.48536 35.9205 1.75927 35.3974 2.30709C34.8743 2.84187 34.6066 3.55926 34.6066 4.42013C34.6066 5.28099 34.8743 5.98534 35.3974 6.53316C35.9205 7.08098 36.5531 7.3549 37.2708 7.3549C38.025 7.3549 38.6698 7.08098 39.1807 6.53316C39.5214 6.16795 39.716 5.65925 39.7647 5.03317V4.90273H37.3925V4.28969H40.4581V4.1723L40.3486 4.19839C40.3851 4.36795 40.3973 4.53752 40.3973 4.70708H40.6162C40.6162 4.52448 40.6041 4.34187 40.5676 4.15926L40.5554 4.05491H37.1492V5.13752H39.643V5.02012H39.5214C39.4849 5.60708 39.3024 6.05055 39.0104 6.3636C38.536 6.87229 37.9642 7.12011 37.2586 7.12011C36.5896 7.12011 36.0178 6.85925 35.5312 6.3636C35.0446 5.86795 34.8013 5.22882 34.8013 4.42013C34.8013 3.61144 35.0446 2.98535 35.5312 2.46361C36.0178 1.96796 36.5896 1.72014 37.2586 1.72014C37.9885 1.72014 38.5481 1.98101 38.9618 2.51579L39.0469 2.62014L39.7038 1.90275L39.7768 1.83753L39.716 1.74623C39.4246 1.38565 39.0577 1.10408 38.6455 0.924491C38.2107 0.726491 37.7432 0.624462 37.2708 0.624493C36.2976 0.624493 35.446 0.989709 34.7769 1.72014C34.4422 2.06827 34.1777 2.48637 33.9999 2.94856C33.822 3.41075 33.7345 3.90718 33.7429 4.40708C33.7429 5.47664 34.0835 6.38968 34.7769 7.12011C35.1023 7.47267 35.4912 7.75048 35.92 7.93661C36.3487 8.12274 36.8083 8.21328 37.2708 8.20272C38.2805 8.20272 39.1199 7.8375 39.7525 7.12011L39.6795 7.04185L39.7525 7.13316C40.3243 6.52012 40.6041 5.69838 40.6041 4.69404L40.4948 4.69405V4.70709ZM45.5431 1.75927H42.5505V4.00274H45.2511V4.83752H42.5505V7.08099H45.5431V7.94185H41.7111V0.898405H45.5431V1.75927Z" fill="white"/>
<path fill-rule="evenodd" clip-rule="evenodd" d="M45.5431 1.75927L45.5432 1.64193H42.4411V4.12018H45.1417V4.72018H42.4411V7.19842H45.4337V7.82451H41.8206V1.01585H45.4337V1.75932L45.5431 1.75927L45.5432 1.64193V1.77236H45.6527V0.781064H41.6017V8.05929H45.6527V6.96364H42.66V4.95496H45.3607V3.8854H42.66V1.87671H45.6527V1.75932H45.531L45.5431 1.75927ZM49.0954 7.9419H48.256V1.75932H46.4312V0.898455H50.9323V1.75932H49.1076V7.9419" fill="white"/>
<path fill-rule="evenodd" clip-rule="evenodd" d="M49.0954 7.9419L49.0955 7.82451H48.3656V1.64193H46.5408V1.01585H50.823V1.64193H48.9982V7.9419H49.0954L49.0955 7.82451V7.95494H49.2172V1.87671H51.042V0.781064H46.3097V1.87671H48.1466V8.05929H49.205V7.9419H49.0954ZM54.2049 7.9419H55.0565V0.898455H54.2049V7.9419Z" fill="white"/>
<path fill-rule="evenodd" clip-rule="evenodd" d="M54.2049 7.9419H54.3143V1.02889H54.9347V7.82451H54.2048V7.95494H54.3143H54.1926V8.05929H55.1658V0.781064H54.0953V8.05929H54.2048L54.2049 7.9419ZM58.791 7.9419H57.9395V1.75932H56.1147V0.898455H60.6158V1.75932H58.791V7.9419Z" fill="white"/>
<path fill-rule="evenodd" clip-rule="evenodd" d="M58.791 7.9419L58.7908 7.82457H58.0609V1.64199H56.224V1.01591H60.5061V1.64199H58.6813V7.94196L58.791 7.9419L58.7908 7.82457V7.95501H58.9003V1.87677H60.7251V0.781125H56.005V1.87677H57.8298V8.05935H58.9003V7.94196H58.7786L58.791 7.9419ZM64.9707 6.44197C65.4573 6.96371 66.0656 7.22458 66.759 7.22458C67.4646 7.22458 68.0607 6.96371 68.5473 6.44197C69.0339 5.92023 69.2772 5.24197 69.2772 4.42024C69.2772 3.5985 69.0339 2.93329 68.5473 2.39851C68.0607 1.87677 67.4646 1.6159 66.759 1.6159C66.0534 1.6159 65.4573 1.87677 64.9707 2.39851C64.4841 2.92025 64.2408 3.5985 64.2408 4.42024C64.2408 5.24197 64.4841 5.92023 64.9707 6.44197ZM69.1677 7.02892C68.5229 7.74631 67.72 8.09848 66.759 8.09848C65.7979 8.09848 64.995 7.74631 64.3503 7.02892C64.0333 6.68626 63.7837 6.27873 63.6165 5.83058C63.4493 5.38243 63.3679 4.90281 63.3771 4.42024C63.3673 3.93873 63.4477 3.46002 63.6136 3.01245C63.7795 2.56487 64.0274 2.15753 64.3428 1.81455C64.6581 1.47157 65.0345 1.19992 65.4495 1.01569C65.8645 0.831459 66.3098 0.73839 66.759 0.741995C67.2082 0.73839 67.6534 0.831459 68.0685 1.01569C68.4835 1.19992 68.8598 1.47157 69.1752 1.81455C69.4905 2.15753 69.7385 2.56487 69.9044 3.01245C70.0703 3.46002 70.1507 3.93873 70.1409 4.42024C70.1409 5.45067 69.8124 6.32458 69.1677 7.02892Z" fill="white"/>
<path fill-rule="evenodd" clip-rule="evenodd" d="M64.9707 6.44197L64.8979 6.52011C65.4088 7.06794 66.0292 7.35489 66.7591 7.35489C67.4891 7.35489 68.1216 7.06794 68.6204 6.52011C69.1314 5.97229 69.3868 5.26794 69.3868 4.43317C69.3868 3.5723 69.1314 2.86796 68.6204 2.32013C68.3806 2.05093 68.0915 1.8378 67.7712 1.69415C67.4509 1.55049 67.1063 1.4794 66.7591 1.48535C66.0292 1.48535 65.4088 1.77231 64.8979 2.32013C64.6445 2.59653 64.4459 2.9251 64.3142 3.28603C64.1825 3.64695 64.1203 4.03274 64.1315 4.42012C64.1315 5.26794 64.3869 5.98533 64.8979 6.52011L65.056 6.36359C64.8213 6.10818 64.6376 5.80407 64.5163 5.4699C64.3949 5.13572 64.3385 4.7785 64.3505 4.42012C64.3505 3.63752 64.5937 2.98535 65.056 2.47665C65.2763 2.23202 65.5412 2.03861 65.8342 1.90846C66.1272 1.77831 66.442 1.71421 66.7591 1.72013C67.4404 1.72013 68 1.981 68.4623 2.47665C68.9367 2.99839 69.1679 3.62447 69.1679 4.43317C69.1679 5.21577 68.9245 5.8549 68.4623 6.36359C68 6.87228 67.4404 7.12011 66.7591 7.12011C66.442 7.12604 66.1272 7.06193 65.8342 6.93178C65.5412 6.80163 65.2763 6.60822 65.056 6.36359L64.9707 6.44197ZM69.1677 7.02892L69.0949 6.95055C68.4623 7.64185 67.6959 7.98098 66.7591 7.99402C66.3254 7.99588 65.8956 7.90456 65.4953 7.72545C65.095 7.54633 64.7322 7.28306 64.4283 6.95116C64.1244 6.61925 63.8856 6.22545 63.726 5.79298C63.5663 5.36052 63.4891 4.89815 63.4989 4.43317C63.4875 3.9671 63.5635 3.50332 63.7224 3.06933C63.8812 2.63534 64.1198 2.23998 64.4238 1.90668C64.7279 1.57338 65.0913 1.30893 65.4924 1.12901C65.8936 0.949088 66.3243 0.857363 66.7591 0.859269C67.6959 0.859269 68.4623 1.1984 69.0827 1.90274C69.7153 2.59404 70.0316 3.42882 70.0316 4.42012C70.0316 5.42447 69.7153 6.25925 69.0949 6.95055L69.253 7.12011C69.9099 6.38968 70.2506 5.47664 70.2506 4.42012C70.2603 3.9232 70.1771 3.42922 70.0057 2.96741C69.8343 2.50559 69.5783 2.08532 69.2528 1.73144C68.9272 1.37756 68.5388 1.09726 68.1105 0.907131C67.6822 0.716999 67.2227 0.620889 66.7591 0.624487C66.2966 0.622637 65.8384 0.720037 65.4115 0.91095C64.9846 1.10186 64.5977 1.38243 64.2735 1.73613C63.9493 2.08983 63.6943 2.50951 63.5237 2.97046C63.3531 3.43141 63.2702 3.9243 63.2799 4.42012C63.2799 5.47664 63.6084 6.37664 64.2775 7.12011C64.9344 7.85054 65.7738 8.21576 66.7591 8.21576C67.7445 8.21576 68.5839 7.85054 69.253 7.12011L69.1677 7.02892ZM71.3333 7.94185V0.898399H72.3551L75.5424 6.37664H75.5789L75.5424 5.02012V0.898399H76.394V7.94185H75.5059L72.1605 2.20274H72.124L72.1605 3.55926V7.94185H71.3211" fill="white"/>
<path fill-rule="evenodd" clip-rule="evenodd" d="M71.3333 7.94185L71.4304 7.9419V1.02889H72.282L75.4814 6.50712H75.6882L75.6517 5.02017V1.01585H76.2721V7.82451H75.5666L72.2211 2.08541H72.0143L72.0508 3.55931V7.82451H71.3209V7.95494V8.05929H72.2698V3.55931L72.2333 2.18975H72.1238V2.32019H72.1603V2.18975L72.0752 2.25497L75.4449 8.05929H76.4911V0.781064H75.4327V5.02017L75.4692 6.37669L75.5789 6.37664L75.5787 6.2593H75.5422V6.38973L75.6396 6.31147L72.4158 0.781064H71.2114V8.05929H71.3331L71.3333 7.94185Z" fill="white"/>
</svg>
